<svg version="1.1"  xmlns="http://www.w3.org/2000/svg" xmlns:xlink="http://www.w3.org/1999/xlink" x="0px" y="0px" width="32" height="32" viewBox="0 0 32 32" style="enable-background:new 0 0 32 32;" xml:space="preserve" viewbox="0 0 32 32">
<path d="M10.854,19.146l3.354,3.354l-3.354,3.354l-0.707-0.707L12.293,23H8.5c-0.583,0.001-1.067-0.15-1.434-0.396
	c-0.368-0.245-0.61-0.571-0.764-0.88C5.997,21.104,6.003,20.542,6,20.5V17h1v3.5l0.001,0.023l0.009,0.104
	c0.011,0.092,0.032,0.222,0.075,0.362c0.085,0.285,0.247,0.591,0.537,0.782C7.817,21.9,8.083,21.999,8.5,22h3.793l-2.146-2.146
	L10.854,19.146z M9,10H4v5h5V10z M10,15h5v-5h-5V15z M21,4h-5v5h5V4z M10,9h5V4h-5V9z M9,4H4v5h5V4z M28,12v16H16V12H28z M26,24h-8
	v1h8V24z M26,21h-8v1h8V21z M26,18h-8v1h8V18z M26,15h-8v1h8V15z M21,10h-5v1h5V10z"></path>
</svg>